<svg width="309" height="240" viewBox="0 0 309 240" fill="none" xmlns="http://www.w3.org/2000/svg">
<path d="M203.991 0H240L160.324 49.3661L55.6757 114H20L203.991 0Z" fill="#D9D9D9"/>
<path d="M143.011 23H171L109.07 62.4062L27.7297 114H0L143.011 23Z" fill="#D9D9D9"/>
<path d="M121.664 126H85L166.124 175.366L272.676 240H309L121.664 126Z" fill="#D9D9D9"/>
<path d="M272.336 0H309L227.876 49.3661L121.324 114H85L272.336 0Z" fill="#D9D9D9"/>
<path d="M27.9888 126H0L61.9297 165.406L143.27 217H171L27.9888 126Z" fill="#D9D9D9"/>
<path d="M56.8274 126H20L101.486 175.366L208.514 240H245L56.8274 126Z" fill="#D9D9D9"/>
</svg>
