<svg width="308" height="240" viewBox="0 0 308 240" fill="none" xmlns="http://www.w3.org/2000/svg">
<path d="M105.009 0H69L148.676 49.3661L253.324 114H289L105.009 0Z" fill="#D9D9D9"/>
<path d="M164.989 23H137L198.93 62.4062L280.27 114H308L164.989 23Z" fill="#D9D9D9"/>
<path d="M187.336 126H224L142.876 175.366L36.3243 240H0L187.336 126Z" fill="#D9D9D9"/>
<path d="M36.6637 0H0L81.1243 49.3661L187.676 114H224L36.6637 0Z" fill="#D9D9D9"/>
<path d="M280.011 126H308L246.07 165.406L164.73 217H137L280.011 126Z" fill="#D9D9D9"/>
<path d="M252.173 126H289L207.514 175.366L100.486 240H64L252.173 126Z" fill="#D9D9D9"/>
</svg>
